<?xml version="1.0" standalone="no"?>
<!DOCTYPE svg PUBLIC "-//W3C//DTD SVG 20010904//EN"
 "http://www.w3.org/TR/2001/REC-SVG-20010904/DTD/svg10.dtd">
<svg version="1.0" xmlns="http://www.w3.org/2000/svg"
 width="71.000000pt" height="71.000000pt" viewBox="0 0 71.000000 71.000000"
 preserveAspectRatio="xMidYMid meet">
<metadata>
Created by potrace 1.11, written by Peter Selinger 2001-2013
</metadata>
<g transform="translate(0.000000,71.000000) scale(0.100000,-0.100000)"
fill="#000000" stroke="none">
<path d="M272 700 c-135 -29 -247 -150 -267 -292 l-7 -48 58 0 c55 0 61 -2
100 -41 l42 -41 47 86 c25 47 50 88 55 91 14 8 20 -9 55 -139 21 -78 34 -114
38 -101 3 11 22 102 43 202 21 100 41 188 45 195 14 22 26 -2 49 -92 43 -174
38 -160 66 -150 14 6 41 10 60 10 33 0 34 1 34 38 0 50 -49 149 -96 194 -78
74 -212 111 -322 88z"/>
<path d="M455 333 c-21 -104 -42 -199 -47 -212 -15 -40 -32 -9 -67 124 -18 66
-34 127 -37 135 -4 9 -20 -14 -45 -62 -21 -42 -44 -80 -50 -83 -6 -4 -29 11
-53 34 -38 37 -46 41 -94 41 -48 0 -52 -2 -52 -23 0 -39 58 -143 102 -182 69
-63 139 -89 238 -89 71 -1 94 4 142 26 111 52 192 157 205 268 6 48 5 50 -20
50 -14 0 -47 -9 -73 -20 -26 -12 -50 -17 -54 -13 -4 4 -17 50 -30 101 -12 50
-23 92 -24 92 -2 0 -20 -84 -41 -187z"/>
</g>
</svg>
