<?xml version="1.0" encoding="utf-8"?>
<!-- Generator: Adobe Illustrator 19.1.0, SVG Export Plug-In . SVG Version: 6.00 Build 0)  -->
<svg version="1.1" id="Calque_1" xmlns="http://www.w3.org/2000/svg" xmlns:xlink="http://www.w3.org/1999/xlink" x="0px" y="0px"
	 viewBox="0 0 176 34" style="enable-background:new 0 0 176 34;" xml:space="preserve">
<style type="text/css">
	.st0{fill:#FFFFFF;}
</style>
<g>
	<g>
		<path class="st0" d="M3.3,27.1c-1.2,0-2.1-1-2.1-2.1v-2.8h2.2v3.1H6v-4l-4.4-7.6c-0.4-0.7-0.4-1.4-0.4-1.4V9.1
			c0-1.2,1-2.1,2.1-2.1H6c1.2,0,2.1,1,2.1,2.1v2.8H6V8.8H3.4v3.7L7.8,20c0.4,0.7,0.4,1.4,0.4,1.4v3.6c0,1.2-0.9,2.1-2.1,2.1H3.3z"/>
		<path class="st0" d="M12.4,27.1c-1.2,0-2.1-1-2.1-2.1V9.1c0-1.2,1-2.1,2.1-2.1h3.2c1.2,0,2.1,1,2.1,2.1v15.9c0,1.2-1,2.1-2.1,2.1
			H12.4z M15.6,8.8h-3.1v16.5h3.1V8.8z"/>
		<path class="st0" d="M22.2,26.9c-1.2,0-2.1-1-2.1-2.1V7.1h2.2v17.9h3.1V7.1h2.2v17.6c0,1.2-1,2.1-2.1,2.1H22.2z"/>
		<path class="st0" d="M35.5,26.9V9h-3.2v17.9h-2.2V7.1h2.2v1.1C32.5,7.5,33,7.1,34,7.1h1.6c1.2,0,2.1,1,2.1,2.1v17.6H35.5z"/>
		<path class="st0" d="M40.2,26.9V7.1h5.2c1.2,0,2.1,1,2.1,2.1v15.5c0,1.2-1,2.1-2.1,2.1H40.2z M45.3,8.9h-2.9v16.1h2.9V8.9z"/>
		<path class="st0" d="M111.3,27.1c-1.2,0-2.1-1-2.1-2.1v-2.8h2.2v3.1h2.6v-4l-4.3-7.6c-0.4-0.7-0.4-1.4-0.4-1.4V9.1
			c0-1.2,1-2.1,2.1-2.1h2.7c1.2,0,2.1,1,2.1,2.1v2.8H114V8.8h-2.6v3.7l4.4,7.6c0.4,0.7,0.4,1.4,0.4,1.4v3.6c0,1.2-0.9,2.1-2.1,2.1
			H111.3z"/>
		<path class="st0" d="M120.4,26.9c-1.2,0-2.1-1-2.1-2.1v-3.4h2.2v3.7h2.9v-6.6h-3c-1.2,0-2.1-0.9-2.1-2.1V7.1h2.2v9.5h2.9V7.1h2.2
			v17.6c0,1.2-1,2.1-2.1,2.1H120.4z"/>
		<path class="st0" d="M133.5,26.9V9h-3.2v17.9H128V7.1h2.2v1.1c0.3-0.8,0.8-1.1,1.7-1.1h1.6c1.2,0,2.1,1,2.1,2.1v17.6H133.5z"/>
		<path class="st0" d="M140.2,27.1c-1.2,0-2.1-1-2.1-2.1V9.1c0-1.2,1-2.1,2.1-2.1h3.2c1.2,0,2.1,1,2.1,2.1v3.1h-2.2V8.8h-3.1v16.5
			h3.1v-3.8h2.2v3.5c0,1.2-0.9,2.1-2.1,2.1H140.2z"/>
		<path class="st0" d="M153.2,26.9v-9.1h-3.4v9.1h-2.2V7.1h2.2v8.8h3.4V7.1h2.2v19.8H153.2z"/>
		<path class="st0" d="M163.3,26.9l-1.5-7.9h-1.7v7.9h-2.2V7.1h5.1c1.2,0,2.1,1,2.1,2.1v7.5c0,0.8-0.5,1.6-1.2,1.9l1.6,8.2H163.3z
			 M162.9,9h-2.8v8.2h2.8V9z"/>
		<path class="st0" d="M169.4,27.1c-1.2,0-2.1-1-2.1-2.1V9.1c0-1.2,1-2.1,2.1-2.1h3.2c1.2,0,2.1,1,2.1,2.1v15.9c0,1.2-1,2.1-2.1,2.1
			H169.4z M172.6,8.8h-3.1v16.5h3.1V8.8z"/>
	</g>
	<g>
		<path class="st0" d="M67.8,17c0.2,0,0.5,0.2,0.6,0.4l3,3.3l4.1-8c0.2-0.3,0.5-0.5,0.8-0.4c0.3,0,0.6,0.3,0.7,0.6l3.1,11.6l3.9-19
			c0.1-0.4,0.4-0.7,0.8-0.7c0.4,0,0.7,0.3,0.8,0.6l2.8,11.4l2.7-1c0.1,0,0.2,0.1,0.3,0.1h2.7C93.7,7,86.8,1,78.4,1
			c-8.8,0-16,6.9-16,15.8c0,0.1,0,0.2,0,0.2H67.8z"/>
		<path class="st0" d="M91.8,17l-3.5,1.7c-0.2,0.1-0.5,0.2-0.7,0.1c-0.2-0.1-0.4-0.3-0.4-0.5L85,9.4l-3.9,18.9
			C81,28.6,80.7,29,80.3,29c0,0,0,0,0,0c-0.4,0-0.7-0.3-0.8-0.7L76,15.4l-3.7,7.2C72.2,22.8,72,23,71.7,23c-0.3,0-0.5,0-0.7-0.2
			L67.4,19h-4.9c1,8,7.7,13.8,15.9,13.8c8.7,0,15.8-6.8,16-15.8H91.8z"/>
	</g>
</g>
</svg>
